<?xml version="1.0" encoding="UTF-8" standalone="no"?>
<!-- Created with Inkscape (http://www.inkscape.org/) -->

<svg
   xmlns:dc="http://purl.org/dc/elements/1.1/"
   xmlns:cc="http://creativecommons.org/ns#"
   xmlns:rdf="http://www.w3.org/1999/02/22-rdf-syntax-ns#"
   xmlns:svg="http://www.w3.org/2000/svg"
   xmlns="http://www.w3.org/2000/svg"
   xmlns:sodipodi="http://sodipodi.sourceforge.net/DTD/sodipodi-0.dtd"
   xmlns:inkscape="http://www.inkscape.org/namespaces/inkscape"
   width="15.610409mm"
   height="8.0963202mm"
   viewBox="0 0 15.610409 8.0963201"
   version="1.1"
   id="svg8"
   inkscape:version="0.92.4 5da689c313, 2019-01-14"
   sodipodi:docname="icon_transparent.svg"
   inkscape:export-xdpi="162.56"
   inkscape:export-ydpi="162.56">
  <defs
     id="defs2" />
  <sodipodi:namedview
     id="base"
     pagecolor="#ffffff"
     bordercolor="#666666"
     borderopacity="1.0"
     inkscape:pageopacity="0.0"
     inkscape:pageshadow="2"
     inkscape:zoom="5.6"
     inkscape:cx="18.091196"
     inkscape:cy="25.504502"
     inkscape:document-units="mm"
     inkscape:current-layer="text4520"
     showgrid="false"
     inkscape:window-width="1920"
     inkscape:window-height="1025"
     inkscape:window-x="0"
     inkscape:window-y="25"
     inkscape:window-maximized="1"
     fit-margin-top="0"
     fit-margin-left="0"
     fit-margin-right="0"
     fit-margin-bottom="0" />
  <metadata
     id="metadata5">
    <rdf:RDF>
      <cc:Work
         rdf:about="">
        <dc:format>image/svg+xml</dc:format>
        <dc:type
           rdf:resource="http://purl.org/dc/dcmitype/StillImage" />
        <dc:title></dc:title>
      </cc:Work>
    </rdf:RDF>
  </metadata>
  <g
     inkscape:label="Layer 1"
     inkscape:groupmode="layer"
     id="layer1"
     transform="translate(-4.3895915,-288.90374)"
     style="display:inline">
    <rect
       style="opacity:1;fill:none;fill-opacity:1;stroke:none;stroke-width:0.56499994;stroke-linecap:butt;stroke-linejoin:round;stroke-miterlimit:4;stroke-dasharray:none;stroke-dashoffset:0;stroke-opacity:1;paint-order:markers stroke fill"
       id="rect4522"
       width="20"
       height="20"
       x="0"
       y="276.95477" />
    <g
       aria-label="std"
       style="font-style:normal;font-variant:normal;font-weight:normal;font-stretch:normal;font-size:10.58333302px;line-height:1.25;font-family:'Graphik Web';-inkscape-font-specification:'Graphik Web';text-align:center;letter-spacing:0px;word-spacing:0px;text-anchor:middle;fill:#000000;fill-opacity:1;stroke:none;stroke-width:0.26458332"
       id="text4520">
      <path
         d="m 6.9295914,296.99999 c 0.762,0 1.3758333,-0.14817 1.8309167,-0.45509 0.4444999,-0.30691 0.6773333,-0.79375 0.6773333,-1.44991 0,-0.29634 -0.052917,-0.53975 -0.1375834,-0.75142 -0.09525,-0.20108 -0.2328333,-0.37042 -0.4233333,-0.51858 -0.1905,-0.127 -0.4339166,-0.23284 -0.7196666,-0.3175 -0.28575,-0.0741 -0.6138333,-0.13759 -0.9948333,-0.1905 -0.3386667,-0.0423 -0.5820834,-0.0952 -0.7196667,-0.15875 -0.1481666,-0.0635 -0.2116666,-0.15875 -0.2116666,-0.29634 0,-0.127 0.052917,-0.22225 0.15875,-0.30691 0.1058333,-0.0847 0.2539999,-0.127 0.4656666,-0.127 0.2116667,0 0.381,0.0529 0.4868333,0.13758 0.1058334,0.0953 0.1799167,0.23283 0.22225,0.41275 h 1.7145 c -0.042333,-0.32808 -0.127,-0.60325 -0.254,-0.83608 -0.127,-0.22225 -0.2963333,-0.40217 -0.508,-0.55034 -0.2116667,-0.13758 -0.4656667,-0.24341 -0.7514167,-0.30691 -0.2857499,-0.0635 -0.5926666,-0.0953 -0.9313333,-0.0953 -0.3174999,0 -0.6244166,0.0423 -0.9101666,0.11641 -0.2963333,0.0741 -0.53975,0.17992 -0.7514166,0.32809 -0.22225,0.15875 -0.3915834,0.34925 -0.5185834,0.58208 -0.127,0.23283 -0.1905,0.49742 -0.1905,0.79375 0,0.29633 0.03175,0.53975 0.1164167,0.74083 0.084667,0.21167 0.2116667,0.381 0.381,0.508 0.1693333,0.14817 0.381,0.254 0.6455833,0.33867 0.2645833,0.0847 0.5820833,0.14817 0.9630833,0.1905 0.381,0.0635 0.6455833,0.127 0.79375,0.1905 0.1481667,0.0741 0.2328333,0.17992 0.2328333,0.30692 0,0.14816 -0.0635,0.254 -0.1693333,0.33866 -0.1058333,0.0847 -0.2751667,0.11642 -0.508,0.11642 -0.2751667,0 -0.4656666,-0.0529 -0.5715,-0.15875 -0.1058333,-0.10583 -0.1799166,-0.254 -0.2116666,-0.46567 h -1.74625 c 0.021167,0.62442 0.2434167,1.09009 0.6879167,1.40759 0.4444999,0.3175 1.0583333,0.47625 1.8520832,0.47625 z"
         style="font-style:normal;font-variant:normal;font-weight:800;font-stretch:normal;font-family:'Graphik Web';-inkscape-font-specification:'Graphik Web Ultra-Bold';stroke-width:0.26458332"
         id="path866"
         inkscape:connector-curvature="0" />
      <path
         d="m 12.411751,296.99999 c 0.22225,0 0.423334,-0.0106 0.60325,-0.0529 0.169334,-0.0317 0.3175,-0.0635 0.4445,-0.10583 v -1.43934 c -0.08467,0.0423 -0.169333,0.0635 -0.254,0.0741 -0.08467,0.0212 -0.179916,0.0212 -0.28575,0.0212 -0.1905,0 -0.328083,-0.0423 -0.423333,-0.14816 -0.09525,-0.0953 -0.137583,-0.24342 -0.137583,-0.43392 v -2.286 h 1.090083 v -1.29117 h -1.090083 v -1.15358 h -1.894417 v 1.15358 H 9.7976681 v 1.29117 h 0.6667499 v 2.46592 c 0,0.65616 0.15875,1.143 0.497417,1.44991 0.338666,0.30692 0.814916,0.45509 1.449916,0.45509 z"
         style="font-style:normal;font-variant:normal;font-weight:800;font-stretch:normal;font-family:'Graphik Web';-inkscape-font-specification:'Graphik Web Ultra-Bold';stroke-width:0.26458332"
         id="path868"
         inkscape:connector-curvature="0" />
      <path
         d="m 16.3805,296.99999 c 0.423334,0 0.772584,-0.0953 1.068917,-0.29634 0.296333,-0.1905 0.508,-0.43391 0.656167,-0.73025 v 0.89959 H 20 v -7.96925 h -1.894416 v 3.21733 c -0.169334,-0.27517 -0.381,-0.508 -0.645584,-0.67733 -0.275166,-0.16934 -0.624416,-0.254 -1.058333,-0.254 -0.338667,0 -0.645583,0.0635 -0.931333,0.1905 -0.28575,0.127 -0.529167,0.30691 -0.740834,0.53975 -0.211666,0.254 -0.381,0.55033 -0.497416,0.91016 -0.127,0.35984 -0.179917,0.78317 -0.179917,1.24884 v 0.0847 c 0,0.48684 0.05292,0.89959 0.179917,1.25942 0.127,0.35983 0.296333,0.64558 0.508,0.87842 0.211666,0.23283 0.455083,0.41275 0.740833,0.52916 0.275167,0.11642 0.582083,0.16934 0.899583,0.16934 z m 0.66675,-1.44992 c -0.338666,0 -0.592666,-0.11642 -0.783166,-0.34925 -0.1905,-0.23283 -0.28575,-0.59267 -0.28575,-1.05833 v -0.0847 c 0,-0.47625 0.08467,-0.83608 0.275166,-1.0795 0.179917,-0.23283 0.455084,-0.35983 0.814917,-0.35983 0.34925,0 0.613833,0.127 0.804333,0.37041 0.1905,0.24342 0.28575,0.59267 0.28575,1.05834 v 0.0847 c 0,0.47625 -0.105833,0.83609 -0.296333,1.06892 -0.201083,0.23283 -0.47625,0.34925 -0.814917,0.34925 z"
         style="font-style:normal;font-variant:normal;font-weight:800;font-stretch:normal;font-family:'Graphik Web';-inkscape-font-specification:'Graphik Web Ultra-Bold';stroke-width:0.26458332"
         id="path870"
         inkscape:connector-curvature="0" />
    </g>
  </g>
</svg>
